<?xml version="1.0" standalone="no"?>
<!DOCTYPE svg PUBLIC "-//W3C//DTD SVG 20010904//EN"
 "http://www.w3.org/TR/2001/REC-SVG-20010904/DTD/svg10.dtd">
<svg version="1.0" xmlns="http://www.w3.org/2000/svg"
 width="300.000000pt" height="300.000000pt" viewBox="0 0 300.000000 300.000000"
 preserveAspectRatio="xMidYMid meet">
<metadata>
Created by potrace 1.10, written by Peter Selinger 2001-2011
</metadata>
<g transform="translate(0.000000,300.000000) scale(0.100000,-0.100000)"
fill="#000000" stroke="none">
<path d="M1370 2555 c-36 -6 -75 -17 -87 -23 -12 -7 -30 -12 -41 -12 -51 0
-239 -120 -305 -195 -25 -29 -127 -172 -127 -179 0 -3 -11 -29 -24 -59 -26
-57 -28 -62 -46 -184 -25 -161 19 -354 114 -503 61 -94 223 -234 321 -277 192
-83 309 -98 485 -64 30 6 59 16 64 21 6 6 19 10 31 10 25 0 154 64 216 107 79
55 193 199 246 313 61 130 79 352 39 480 -64 205 -221 398 -396 488 -45 23
-91 42 -104 42 -12 0 -32 7 -44 16 -12 8 -32 14 -45 13 -12 -2 -33 1 -47 6
-38 12 -177 13 -250 0z m235 -25 c17 0 24 -7 27 -27 l4 -28 -138 0 c-111 0
-137 3 -133 13 3 8 5 20 5 27 0 16 66 24 154 19 32 -2 69 -4 81 -4z m-255
-330 l0 -320 -36 0 -35 0 3 315 c3 335 1 321 51 324 16 1 17 -20 17 -319z
m354 314 c14 -5 16 -43 16 -320 l0 -314 -30 0 -29 0 -3 320 c-3 345 -5 334 46
314z m-444 -324 l0 -310 -30 0 -31 0 3 265 c2 181 0 265 -8 265 -19 0 -106
-61 -161 -113 -142 -134 -215 -303 -214 -499 0 -216 115 -427 301 -554 53 -36
70 -53 70 -71 0 -13 -3 -23 -7 -23 -17 0 -112 61 -162 104 -399 345 -324 956
149 1206 41 21 78 40 83 40 4 0 7 -139 7 -310z m676 204 c135 -95 248 -260
289 -419 21 -79 21 -260 0 -340 -35 -133 -118 -270 -223 -366 -56 -51 -168
-126 -176 -118 -14 14 11 57 46 79 62 39 169 148 215 220 23 36 54 101 70 145
25 72 28 93 28 205 -1 134 -14 198 -62 295 -38 75 -107 168 -160 215 -45 39
-139 100 -155 100 -5 0 -8 -119 -8 -265 l0 -265 -27 0 -28 0 1 303 c1 166 2
305 3 310 2 11 119 -50 187 -99z m-309 -14 c-1 -26 -3 -47 -3 -47 -20 22 -71
96 -69 99 3 2 20 2 39 0 34 -4 34 -4 33 -52z m-96 27 c43 -33 46 -81 6 -124
-52 -57 -149 0 -132 78 11 48 87 76 126 46z m-351 -277 l0 -250 -27 0 -28 0 3
232 c3 221 4 234 24 251 11 9 22 17 24 17 2 0 4 -112 4 -250z m700 -17 l0
-233 -25 0 c-23 0 -25 4 -25 43 -1 23 -3 89 -6 145 -4 57 -3 151 1 208 l7 104
24 -18 23 -17 1 -232z m-280 52 c-1 -108 2 -170 9 -179 14 -17 -11 -41 -34
-32 -16 6 -20 32 -6 40 4 3 6 28 3 55 -6 70 8 281 19 281 6 0 9 -67 9 -165z
m-500 -65 l0 -220 -49 0 c-68 0 -101 27 -101 83 0 31 -5 45 -20 55 -11 7 -20
23 -20 37 0 24 31 65 49 65 15 0 61 -41 61 -54 0 -7 -9 -25 -21 -40 -14 -18
-19 -37 -17 -63 3 -35 6 -38 36 -41 l32 -3 0 180 c0 157 2 183 17 201 10 11
21 20 25 20 5 0 8 -99 8 -220z m839 196 c23 -24 23 -26 16 -201 l-7 -176 38 3
c35 3 39 6 45 38 6 29 3 38 -17 57 -13 12 -24 30 -24 39 0 25 30 54 56 54 50
0 72 -61 34 -95 -13 -12 -20 -31 -20 -55 0 -54 -31 -79 -97 -78 l-51 1 -6 131
c-6 154 -4 306 5 306 3 0 16 -11 28 -24z m-513 -43 c23 -19 34 -36 34 -54 0
-24 -4 -27 -40 -31 l-40 -4 0 58 c0 32 2 58 6 58 3 0 21 -12 40 -27z m88 -194
c-1 -117 -5 -174 -13 -177 -8 -3 -11 49 -11 178 0 141 3 181 13 177 9 -3 12
-46 11 -178z m-66 69 c18 -18 15 -36 -7 -48 -23 -12 -47 -5 -55 17 -13 33 36
57 62 31z m-18 -124 c0 -28 -4 -44 -11 -42 -6 2 -10 7 -10 11 1 4 1 23 1 42 0
19 5 35 10 35 6 0 10 -21 10 -46z m-507 -60 c5 -49 4 -52 -18 -57 -14 -2 -27
-2 -30 1 -9 9 -6 60 4 67 5 3 13 19 16 37 9 40 20 21 28 -48z m1222 0 c7 -52
8 -51 -25 -56 -21 -2 -26 2 -28 25 -3 28 20 77 37 77 5 0 12 -21 16 -46z
m-740 6 c3 -5 17 -10 31 -10 17 0 24 -5 24 -20 0 -21 -4 -24 -52 -34 -27 -6
-28 -5 -28 34 0 38 12 52 25 30z m191 -29 c40 -11 36 -25 -8 -29 -37 -3 -38
-2 -38 30 0 21 3 28 9 20 4 -7 21 -16 37 -21z m574 -93 l0 -28 -665 0 -665 0
0 28 0 27 665 0 665 0 0 -27z m-2 -86 l-3 -27 -662 -3 -663 -2 0 29 0 29 666
1 665 1 -3 -28z m-1190 -95 c2 -37 0 -47 -12 -47 -12 0 -16 12 -16 51 0 66 24
62 28 -4z m122 -159 l0 -201 -25 23 c-25 23 -25 25 -25 202 l0 178 25 0 25 0
0 -202z m80 -28 c0 -126 -3 -230 -7 -230 -5 1 -17 8 -28 18 -19 16 -20 27 -17
230 l3 212 24 0 25 0 0 -230z m80 -55 c0 -195 -3 -285 -11 -285 -6 0 -19 5
-30 10 -18 10 -19 24 -19 279 0 147 3 271 7 274 3 4 17 7 30 7 l23 0 0 -285z
m90 -16 l0 -299 -27 6 c-16 4 -32 9 -36 11 -7 4 -8 558 -1 573 1 3 16 6 33 7
l31 2 0 -300z m166 121 l-5 -169 32 -3 c26 -2 36 -10 50 -40 15 -31 16 -41 6
-60 -29 -54 -90 -65 -129 -23 -19 20 -22 31 -17 62 4 21 13 43 22 49 12 9 15
40 15 181 0 93 3 173 6 176 20 19 24 -21 20 -173z m190 170 c12 0 14 -46 14
-290 0 -225 -3 -290 -12 -290 -7 0 -22 -3 -33 -6 -20 -5 -20 -1 -18 293 2 164
3 300 3 302 0 2 7 0 16 -3 9 -3 22 -6 30 -6z m94 -270 c0 -154 -3 -280 -7
-280 -5 0 -17 -3 -28 -6 -20 -5 -20 -1 -18 278 2 156 3 283 3 283 0 0 11 2 25
3 l25 2 0 -280z m80 73 c0 -178 -2 -209 -17 -225 -35 -39 -38 -24 -40 207 l-3
225 30 0 30 0 0 -207z m75 31 l4 -171 -29 -28 -30 -29 0 203 0 202 25 -3 26
-3 4 -171z m107 112 c-3 -39 0 -60 13 -80 16 -24 16 -28 1 -51 -20 -31 -61
-33 -76 -5 -14 26 -5 57 19 65 15 4 17 14 13 65 -4 54 -3 60 15 60 18 0 19 -6
15 -54z m-1139 8 c4 -22 1 -47 -7 -62 -13 -25 -13 -25 -30 23 -21 64 -20 75 8
75 19 0 24 -6 29 -36z m540 28 c3 -4 3 -20 0 -35 -4 -22 -8 -25 -20 -16 -10 9
-20 9 -38 1 -24 -11 -25 -10 -25 23 0 34 1 35 39 35 22 0 42 -3 44 -8z m165
-26 c3 -26 2 -28 -23 -22 -15 4 -33 2 -40 -4 -10 -8 -14 -4 -18 17 -7 38 -1
45 41 41 32 -3 37 -7 40 -32z m375 -28 l-11 -43 -1 55 c-1 41 2 51 11 42 8 -8
8 -23 1 -54z m142 45 c-4 -10 -14 -38 -22 -62 -13 -36 -17 -41 -25 -26 -6 9
-7 37 -3 61 5 39 9 44 32 44 20 0 24 -4 18 -17z m-1119 -37 c-1 -24 -4 -42 -8
-39 -11 6 -10 83 0 83 5 0 8 -20 8 -44z m404 -205 c0 -189 0 -190 26 -220 l26
-31 -32 0 c-47 0 -70 16 -70 50 0 17 5 30 10 30 6 0 10 64 10 173 0 96 3 177
7 180 19 20 23 -9 23 -182z m172 147 c-17 -17 -15 -48 4 -69 29 -32 -9 -76
-41 -49 -19 16 -19 49 0 56 18 7 20 45 3 62 -8 8 -8 15 2 27 12 14 15 14 29 1
12 -12 13 -18 3 -28z m-608 -4 c19 -7 21 -55 4 -72 -17 -17 -38 -15 -60 5 -44
39 -2 89 56 67z m1046 -127 c0 -5 -6 -7 -14 -4 -10 4 -18 -4 -25 -21 -9 -25
-9 -24 -10 15 -1 42 -1 42 24 31 14 -6 25 -15 25 -21z m-412 -33 c2 -1 1 -16
-3 -33 l-6 -30 -35 21 c-19 11 -34 28 -34 38 0 16 6 18 38 13 20 -3 39 -7 40
-9z m2 -287 l0 -28 -127 3 -128 3 -3 25 -3 25 131 0 130 0 0 -28z"/>
<path d="M1461 2356 c-9 -11 -10 -20 -1 -35 6 -12 15 -21 20 -21 16 0 41 32
38 49 -4 21 -41 26 -57 7z"/>
<path d="M953 2083 c-16 -6 -17 -39 -2 -49 6 -3 18 1 27 10 14 14 14 18 2 30
-8 7 -21 12 -27 9z"/>
<path d="M2023 2064 c-3 -8 -1 -20 5 -26 16 -16 42 -2 42 22 0 24 -38 28 -47
4z"/>
<path d="M1513 1293 c-18 -7 -16 -52 3 -60 23 -9 51 23 38 44 -12 19 -23 24
-41 16z"/>
<path d="M548 2015 c-3 -6 0 -19 7 -29 13 -17 15 -17 29 -3 9 9 16 19 16 23 0
5 -5 3 -12 -4 -17 -17 -26 -15 -30 6 -2 9 -6 12 -10 7z"/>
<path d="M616 1808 c-14 -20 -14 -24 1 -40 21 -24 39 -23 57 4 14 20 14 24 -1
40 -21 24 -39 23 -57 -4z m52 -15 c5 -17 -26 -29 -40 -15 -6 6 -7 15 -3 22 9
14 37 9 43 -7z"/>
<path d="M2345 1821 c-3 -5 5 -11 17 -13 33 -4 37 -38 4 -38 -15 0 -26 7 -29
18 -4 16 -5 16 -6 0 -2 -35 60 -46 72 -13 12 29 -42 72 -58 46z"/>
<path d="M732 1318 c-22 -29 -23 -57 -2 -78 27 -27 60 -22 79 11 13 24 13 29
-2 53 -19 28 -57 35 -75 14z m49 -8 c36 -20 13 -76 -28 -68 -22 4 -29 43 -13
64 15 17 16 17 41 4z"/>
<path d="M750 1280 c0 -11 7 -20 15 -20 8 0 15 9 15 20 0 11 -7 20 -15 20 -8
0 -15 -9 -15 -20z"/>
<path d="M2268 1301 c12 -12 22 -23 22 -26 0 -39 -55 -49 -70 -12 -6 16 -9 17
-9 5 -1 -9 9 -24 21 -32 19 -13 25 -14 43 -2 28 19 26 55 -5 74 l-25 16 23
-23z"/>
<path d="M394 985 c-19 -29 -21 -163 -3 -196 16 -31 81 -23 89 10 l6 24 17
-26 c16 -25 23 -27 82 -27 35 0 67 5 70 10 8 14 48 13 63 -2 15 -15 133 -12
143 4 6 9 11 9 21 1 14 -12 60 -18 121 -15 30 2 37 6 37 22 0 17 4 19 28 14
30 -8 71 -35 72 -47 0 -4 -7 -10 -15 -14 -9 -3 -22 -20 -30 -39 l-13 -33 -38
19 c-56 29 -121 36 -143 16 -17 -15 -34 -16 -139 -10 -85 5 -121 3 -126 -5 -5
-8 28 -11 119 -11 82 0 124 -4 120 -10 -4 -6 -58 -10 -128 -10 -67 0 -116 -4
-109 -8 7 -5 67 -7 135 -6 91 2 125 0 137 -10 12 -12 25 -12 78 -1 35 7 70 16
78 19 8 3 19 -4 25 -16 9 -17 8 -24 -4 -33 -11 -8 -13 -15 -5 -29 8 -15 12
-16 19 -5 7 12 9 12 9 0 0 -11 4 -9 15 5 17 23 20 3 4 -28 -9 -17 -13 -18 -20
-7 -6 10 -9 11 -9 2 0 -7 -4 -13 -10 -13 -5 0 -10 7 -10 15 0 9 -11 27 -25 40
-21 22 -28 23 -49 14 -44 -20 -41 -70 4 -82 24 -6 32 4 19 23 -8 13 -10 13
-18 0 -16 -24 -22 -5 -8 23 10 20 17 23 25 15 7 -7 12 -19 12 -28 0 -9 10 -22
23 -27 32 -15 173 -16 196 -1 14 9 23 9 33 1 11 -10 111 -15 283 -14 11 1 108
1 215 1 108 1 200 4 205 8 6 4 16 19 24 35 19 36 6 49 -50 52 -67 4 -79 -3
-79 -41 0 -36 -13 -45 -25 -16 -7 16 -8 15 -15 -3 -7 -16 -9 -14 -9 14 -1 27
2 31 13 22 11 -9 18 -1 38 41 40 83 42 97 22 119 -16 18 -17 21 -1 36 16 16
20 16 64 0 60 -22 84 -21 122 1 26 14 33 15 40 3 14 -21 103 -26 141 -7 29 14
35 14 63 -1 31 -16 31 -15 60 18 25 30 29 32 38 17 25 -44 41 -51 106 -45 35
2 67 7 70 11 6 6 7 35 2 96 -2 20 0 43 4 52 11 29 -12 77 -40 84 -39 10 -174
-6 -205 -24 -24 -14 -29 -14 -45 0 -31 26 -51 28 -77 7 l-26 -21 -33 21 c-31
19 -35 19 -56 5 -20 -14 -26 -14 -62 0 -50 20 -76 20 -118 -3 -34 -18 -36 -18
-65 0 -35 21 -68 24 -97 9 -13 -8 -25 -7 -39 0 -16 8 -27 7 -50 -6 -25 -15
-33 -16 -57 -5 -15 7 -46 14 -69 16 -34 3 -46 -1 -64 -20 l-23 -24 -39 20
c-38 19 -41 19 -59 3 -13 -12 -22 -14 -31 -6 -7 5 -32 16 -55 23 -38 11 -48
10 -84 -6 -33 -15 -44 -16 -60 -7 -26 17 -42 15 -72 -8 -32 -25 -42 -25 -79 1
-25 18 -33 20 -52 10 -17 -9 -29 -9 -58 4 -56 23 -104 19 -133 -10 -14 -13
-25 -29 -25 -35 0 -6 -12 2 -26 19 -37 44 -67 41 -101 -11 -26 -39 -28 -40
-31 -17 -8 54 -57 76 -89 40 -16 -19 -16 -19 -42 5 -33 30 -46 30 -67 -1z
m1138 -115 c2 0 1 25 0 55 -4 50 -2 55 17 55 20 0 21 -5 21 -95 0 -52 -2 -95
-5 -95 -3 0 -30 26 -60 58 l-55 57 0 -57 c0 -51 -2 -58 -20 -58 -19 0 -20 7
-20 102 l0 103 60 -63 c33 -34 61 -62 62 -62z m-1082 69 l0 -40 38 3 c36 3 37
4 34 41 -3 32 -1 37 17 37 20 0 21 -5 21 -95 0 -90 -1 -95 -21 -95 -18 0 -20
5 -17 38 3 36 2 37 -34 40 l-38 3 0 -40 c0 -34 -3 -41 -20 -41 -19 0 -20 7
-20 95 0 88 1 95 20 95 17 0 20 -7 20 -41z m279 -54 c17 -41 31 -79 31 -85 0
-16 -28 -12 -38 6 -13 24 -81 25 -93 2 -11 -21 -39 -24 -39 -5 0 7 18 50 40
96 47 98 52 97 99 -14z m181 75 c30 -16 35 -49 11 -80 -20 -28 -20 -28 -1 -53
25 -31 25 -37 1 -37 -11 0 -28 13 -38 30 -9 17 -25 30 -35 30 -13 0 -18 -8
-18 -30 0 -23 -4 -30 -20 -30 -19 0 -20 7 -20 94 l0 95 50 -5 c28 -2 59 -8 70
-14z m80 13 c0 -5 17 -25 37 -47 l36 -38 39 46 c22 25 44 46 49 46 5 0 9 -43
9 -95 0 -88 -2 -95 -20 -95 -16 0 -19 8 -22 57 l-3 57 -25 -37 c-14 -20 -27
-37 -30 -37 -3 0 -15 17 -27 38 l-22 37 -1 -57 c0 -51 -2 -58 -20 -58 -19 0
-20 7 -20 95 0 57 4 95 10 95 6 0 10 -3 10 -7z m339 -7 c29 -15 51 -53 51 -87
0 -28 -62 -89 -89 -89 -30 0 -78 26 -91 49 -44 83 44 170 129 127z m321 -26
l25 -40 23 40 c15 24 31 40 43 40 25 0 25 -3 -16 -64 -24 -36 -35 -65 -35 -90
0 -29 -4 -36 -20 -36 -17 0 -20 7 -20 43 0 30 -9 55 -30 87 -35 52 -36 60 -12
60 9 0 28 -18 42 -40z m235 27 c28 -21 10 -36 -36 -30 -32 5 -41 3 -37 -7 2
-8 11 -17 19 -20 66 -30 74 -37 77 -62 2 -18 -4 -31 -20 -42 -28 -20 -51 -20
-89 0 -25 12 -28 18 -19 29 9 11 17 12 30 5 27 -15 60 -12 60 4 0 8 -17 20
-37 26 -62 20 -79 54 -43 90 23 23 68 26 95 7z m178 2 c26 -12 57 -57 57 -84
0 -30 -29 -72 -59 -85 -93 -38 -173 80 -102 151 31 31 64 36 104 18z m125 -64
l-3 -75 47 0 c38 0 46 -3 44 -17 -2 -15 -14 -18 -64 -19 l-62 -1 0 94 c0 88 1
93 21 93 19 0 20 -5 17 -75z m142 8 c19 -54 25 -63 32 -47 4 10 17 40 27 67
14 33 26 47 40 47 18 0 17 -6 -16 -82 -31 -76 -58 -119 -66 -107 -2 2 -22 46
-44 97 -41 90 -41 92 -19 92 19 0 26 -11 46 -67z m270 47 c0 -17 -7 -20 -50
-20 -43 0 -50 -3 -50 -20 0 -17 7 -20 45 -20 33 0 45 -4 45 -15 0 -11 -12 -15
-45 -15 -38 0 -45 -3 -45 -20 0 -17 7 -20 50 -20 43 0 50 -3 50 -20 0 -18 -7
-20 -65 -20 l-65 0 0 95 0 95 65 0 c58 0 65 -2 65 -20z m-365 -10 c-3 -5 -2
-10 3 -10 5 0 12 -8 15 -17 2 -10 8 -26 12 -36 7 -16 4 -18 -16 -15 -20 2 -24
9 -27 46 -2 26 1 42 8 42 6 0 8 -4 5 -10z m-475 -86 c0 -3 -4 -14 -10 -24 -8
-15 -3 -24 23 -47 18 -16 31 -35 29 -41 -2 -7 3 -12 12 -12 8 0 21 -10 27 -22
l12 -22 15 22 c8 12 21 22 29 22 12 0 10 -7 -6 -34 -12 -18 -21 -43 -21 -55 0
-12 -6 -21 -15 -21 -9 0 -15 9 -15 21 0 36 -38 85 -80 104 -33 15 -40 23 -40
47 0 29 19 68 32 68 5 0 8 -3 8 -6z m-122 -81 c10 -7 25 -13 35 -13 9 0 17 -4
17 -9 0 -15 -32 -22 -46 -10 -7 6 -26 8 -43 4 -18 -4 -32 -2 -37 6 -4 7 -3 10
4 5 13 -8 41 31 43 59 1 16 3 15 6 -5 3 -13 12 -30 21 -37z m-118 7 c24 -19
24 -21 7 -34 -26 -20 -47 -9 -47 25 0 34 6 35 40 9z m-292 -6 c35 -17 38 -24
20 -42 -15 -15 -48 -16 -48 -2 0 6 -8 10 -17 11 -11 0 -13 3 -5 6 6 2 12 13
12 24 0 23 -1 23 38 3z m178 -6 c4 -6 -3 -19 -15 -29 -18 -15 -26 -16 -42 -6
-19 12 -19 12 2 30 25 20 45 22 55 5z m-205 -103 c13 -35 14 -45 4 -45 -7 0
-15 7 -19 15 -3 8 -15 15 -26 15 -11 0 -20 -7 -20 -15 0 -8 -7 -15 -15 -15
-19 0 -19 13 1 53 36 70 46 69 75 -8z m140 48 c13 -15 12 -16 -9 -10 -34 8
-52 -2 -52 -28 0 -23 24 -40 41 -29 15 9 10 24 -6 18 -8 -4 -15 -1 -15 5 0 6
14 11 31 11 27 0 30 -3 23 -22 -13 -42 -51 -51 -84 -18 -26 26 -25 55 2 74 29
21 52 20 69 -1z m139 1 c0 -12 -7 -15 -25 -12 -14 3 -25 1 -25 -3 0 -5 9 -9
21 -9 12 0 19 -5 16 -12 -2 -7 -11 -12 -21 -10 -9 2 -16 -2 -16 -8 0 -5 11
-10 25 -10 16 0 25 -6 25 -15 0 -10 -11 -15 -35 -15 -34 0 -35 1 -35 39 0 22
-3 46 -6 55 -5 13 2 16 35 16 31 0 41 -4 41 -16z m94 -15 l26 -31 0 31 c0 21
5 31 15 31 12 0 15 -13 15 -55 0 -31 -5 -55 -10 -55 -6 0 -24 15 -40 33 l-29
32 -1 -32 c0 -18 -4 -33 -10 -33 -5 0 -10 25 -10 55 0 30 4 55 9 55 5 0 21
-14 35 -31z m186 16 c7 -8 9 -15 4 -16 -5 -1 -20 -2 -34 -2 -18 -2 -25 -8 -25
-22 0 -15 7 -20 29 -20 37 0 46 -22 11 -31 -34 -8 -65 19 -65 57 0 43 54 66
80 34z m-804 -30 c4 -10 20 -15 50 -15 25 0 44 -5 44 -11 0 -7 -14 -8 -41 -4
-33 6 -43 4 -54 -12 -13 -17 -15 -17 -35 3 -20 20 -20 22 -5 38 20 20 34 20
41 1z m868 -64 c16 -18 16 -19 -18 -23 -38 -4 -44 3 -23 27 16 19 21 18 41 -4z
m-136 -13 c8 -10 2 -14 -24 -15 -33 -3 -47 10 -21 20 21 9 34 7 45 -5z m-73
-86 c-3 -4 -10 0 -16 8 -8 13 -10 13 -19 0 -7 -11 -10 -7 -10 19 0 27 3 31 14
22 11 -9 15 -8 22 6 6 14 9 11 12 -15 2 -19 1 -37 -3 -40z m-425 38 c0 -11 -6
-20 -12 -20 -9 0 -8 -4 2 -10 12 -8 11 -10 -7 -10 -17 0 -23 6 -23 23 0 27 7
37 27 37 7 0 13 -9 13 -20z m58 -13 c3 -22 -1 -27 -17 -27 -17 0 -21 6 -21 31
0 24 4 30 18 27 10 -2 18 -14 20 -31z m97 3 c0 -18 -6 -26 -22 -28 -20 -3 -23
1 -23 28 0 27 3 31 23 28 16 -2 22 -10 22 -28z m55 0 c0 -22 -5 -30 -18 -30
-15 0 -18 6 -14 30 2 17 10 30 18 30 9 0 14 -11 14 -30z m55 20 c3 -5 0 -10
-7 -11 -10 0 -10 -2 0 -6 21 -8 13 -33 -10 -32 -21 0 -21 1 -4 8 18 7 18 8 3
14 -9 3 -17 13 -17 22 0 17 25 21 35 5z m32 -25 c2 -13 -1 -26 -7 -30 -6 -4
-10 8 -10 31 0 40 12 39 17 -1z m47 21 c-11 -8 -15 -18 -10 -23 5 -4 11 -2 13
5 3 6 9 9 14 6 13 -7 -8 -34 -27 -34 -18 0 -26 17 -19 40 4 12 15 20 28 20 20
0 20 0 1 -14z m159 -3 c2 -10 8 -27 13 -38 7 -17 6 -18 -8 -7 -8 7 -23 10 -31
6 -14 -5 -14 -2 -4 25 13 35 22 39 30 14z m74 -10 c-3 -31 -33 -44 -43 -19 -9
24 3 46 25 46 15 0 19 -6 18 -27z m43 17 c-8 -5 -10 -10 -4 -10 7 0 14 -9 17
-20 4 -15 0 -20 -14 -20 -14 0 -19 7 -19 30 0 22 5 30 18 30 14 0 15 -2 2 -10z
m130 4 c0 -4 -8 -13 -17 -20 -17 -13 -17 -13 0 -14 21 0 23 -20 2 -20 -21 0
-30 27 -15 45 13 15 30 20 30 9z m53 -2 c2 7 7 10 11 7 7 -7 -16 -59 -26 -59
-5 0 -8 6 -8 14 0 8 -3 23 -7 33 -6 15 -4 16 9 5 13 -10 17 -10 21 0z"/>
<path d="M662 891 c-10 -29 -10 -31 14 -31 27 0 29 5 10 39 l-13 24 -11 -32z"/>
<path d="M828 911 c-4 -28 -2 -31 21 -31 59 1 72 52 15 58 -28 3 -32 0 -36
-27z"/>
<path d="M1240 921 c-5 -11 -10 -28 -10 -39 0 -22 30 -52 51 -52 26 0 59 30
59 54 0 49 -78 78 -100 37z"/>
<path d="M1987 922 c-33 -36 -8 -92 40 -92 25 0 53 30 53 57 0 46 -62 69 -93
35z"/>
<path d="M2025 718 c-74 -26 -85 -31 -85 -41 0 -17 33 -36 63 -37 15 0 36 -6
47 -12 17 -11 24 -9 51 19 l32 31 -28 26 c-30 28 -35 29 -80 14z m63 -32 c2
-9 -2 -24 -9 -32 -10 -13 -14 -13 -30 2 -12 11 -30 15 -54 12 -19 -2 -35 0
-35 4 0 4 17 8 39 8 22 0 44 6 51 15 16 19 34 15 38 -9z"/>
<path d="M2150 690 c-11 -7 22 -10 109 -10 68 0 122 2 119 5 -11 11 -213 16
-228 5z"/>
<path d="M2218 653 c34 -2 88 -2 120 0 31 2 3 3 -63 3 -66 0 -92 -1 -57 -3z"/>
</g>
</svg>
